<mxfile host="app.diagrams.net" agent="Mozilla/5.0 (Windows NT 10.0; Win64; x64) AppleWebKit/537.36 (KHTML, like Gecko) Chrome/127.0.0.0 Safari/537.36 Edg/127.0.0.0" version="24.7.5">
  <diagram id="C5RBs43oDa-KdzZeNtuy" name="Page-1">
    <mxGraphModel dx="794" dy="1670" grid="1" gridSize="10" guides="1" tooltips="1" connect="1" arrows="1" fold="1" page="1" pageScale="1" pageWidth="827" pageHeight="1169" math="0" shadow="0">
      <root>
        <mxCell id="WIyWlLk6GJQsqaUBKTNV-0" />
        <mxCell id="WIyWlLk6GJQsqaUBKTNV-1" parent="WIyWlLk6GJQsqaUBKTNV-0" />
        <mxCell id="tKxHiiyEizvdwOHOVp_o-28" style="edgeStyle=orthogonalEdgeStyle;rounded=0;orthogonalLoop=1;jettySize=auto;html=1;exitX=1;exitY=1;exitDx=0;exitDy=0;exitPerimeter=0;labelBackgroundColor=none;strokeColor=#A8201A;fontColor=default;" edge="1" parent="WIyWlLk6GJQsqaUBKTNV-1" source="tKxHiiyEizvdwOHOVp_o-0">
          <mxGeometry relative="1" as="geometry">
            <mxPoint x="80" y="70" as="targetPoint" />
            <Array as="points">
              <mxPoint x="80" y="50" />
            </Array>
          </mxGeometry>
        </mxCell>
        <mxCell id="tKxHiiyEizvdwOHOVp_o-0" value="Developer" style="shape=umlActor;verticalLabelPosition=bottom;verticalAlign=top;html=1;outlineConnect=0;labelBackgroundColor=none;fillColor=#FAE5C7;strokeColor=#0F8B8D;fontColor=#143642;" vertex="1" parent="WIyWlLk6GJQsqaUBKTNV-1">
          <mxGeometry x="20" y="30" width="30" height="20" as="geometry" />
        </mxCell>
        <mxCell id="tKxHiiyEizvdwOHOVp_o-20" style="edgeStyle=orthogonalEdgeStyle;rounded=0;orthogonalLoop=1;jettySize=auto;html=1;exitX=0.5;exitY=0;exitDx=0;exitDy=0;entryX=0;entryY=0.5;entryDx=0;entryDy=0;labelBackgroundColor=none;strokeColor=#A8201A;fontColor=default;" edge="1" parent="WIyWlLk6GJQsqaUBKTNV-1" source="tKxHiiyEizvdwOHOVp_o-2" target="tKxHiiyEizvdwOHOVp_o-16">
          <mxGeometry relative="1" as="geometry">
            <mxPoint x="390" y="150" as="targetPoint" />
          </mxGeometry>
        </mxCell>
        <mxCell id="tKxHiiyEizvdwOHOVp_o-23" style="edgeStyle=orthogonalEdgeStyle;rounded=0;orthogonalLoop=1;jettySize=auto;html=1;exitX=0.5;exitY=1;exitDx=0;exitDy=0;entryX=0;entryY=0.5;entryDx=0;entryDy=0;labelBackgroundColor=none;strokeColor=#A8201A;fontColor=default;" edge="1" parent="WIyWlLk6GJQsqaUBKTNV-1" source="tKxHiiyEizvdwOHOVp_o-2" target="tKxHiiyEizvdwOHOVp_o-22">
          <mxGeometry relative="1" as="geometry">
            <mxPoint x="390" y="370" as="targetPoint" />
          </mxGeometry>
        </mxCell>
        <mxCell id="tKxHiiyEizvdwOHOVp_o-2" value="Template in Cloudbees" style="rounded=1;whiteSpace=wrap;html=1;labelBackgroundColor=none;fillColor=#FAE5C7;strokeColor=#0F8B8D;fontColor=#143642;" vertex="1" parent="WIyWlLk6GJQsqaUBKTNV-1">
          <mxGeometry x="330" y="210" width="120" height="60" as="geometry" />
        </mxCell>
        <mxCell id="tKxHiiyEizvdwOHOVp_o-10" style="edgeStyle=orthogonalEdgeStyle;rounded=0;orthogonalLoop=1;jettySize=auto;html=1;entryX=0;entryY=0.5;entryDx=0;entryDy=0;labelBackgroundColor=none;strokeColor=#A8201A;fontColor=default;" edge="1" parent="WIyWlLk6GJQsqaUBKTNV-1" source="tKxHiiyEizvdwOHOVp_o-4" target="tKxHiiyEizvdwOHOVp_o-2">
          <mxGeometry relative="1" as="geometry" />
        </mxCell>
        <mxCell id="tKxHiiyEizvdwOHOVp_o-4" value="Source Control" style="rounded=1;whiteSpace=wrap;html=1;labelBackgroundColor=none;fillColor=#FAE5C7;strokeColor=#0F8B8D;fontColor=#143642;" vertex="1" parent="WIyWlLk6GJQsqaUBKTNV-1">
          <mxGeometry x="25" y="210" width="120" height="60" as="geometry" />
        </mxCell>
        <mxCell id="tKxHiiyEizvdwOHOVp_o-5" value="" style="endArrow=classic;html=1;rounded=0;labelBackgroundColor=none;strokeColor=#A8201A;fontColor=default;" edge="1" parent="WIyWlLk6GJQsqaUBKTNV-1">
          <mxGeometry width="50" height="50" relative="1" as="geometry">
            <mxPoint x="84.5" y="140" as="sourcePoint" />
            <mxPoint x="84.5" y="210" as="targetPoint" />
          </mxGeometry>
        </mxCell>
        <mxCell id="tKxHiiyEizvdwOHOVp_o-6" value="Create a Repository" style="rounded=1;whiteSpace=wrap;html=1;labelBackgroundColor=none;fillColor=#1ba1e2;strokeColor=#006EAF;fontColor=#ffffff;" vertex="1" parent="WIyWlLk6GJQsqaUBKTNV-1">
          <mxGeometry x="90" y="160" width="120" height="20" as="geometry" />
        </mxCell>
        <mxCell id="tKxHiiyEizvdwOHOVp_o-11" value="Automatically Triggers&amp;nbsp;" style="rounded=1;whiteSpace=wrap;html=1;labelBackgroundColor=none;fillColor=#1ba1e2;strokeColor=#006EAF;fontColor=#ffffff;" vertex="1" parent="WIyWlLk6GJQsqaUBKTNV-1">
          <mxGeometry x="170" y="250" width="130" height="20" as="geometry" />
        </mxCell>
        <mxCell id="tKxHiiyEizvdwOHOVp_o-12" value="Jenkins pipeline created" style="rounded=1;whiteSpace=wrap;html=1;labelBackgroundColor=none;fillColor=#FAE5C7;strokeColor=#0F8B8D;fontColor=#143642;" vertex="1" parent="WIyWlLk6GJQsqaUBKTNV-1">
          <mxGeometry x="640" y="210" width="120" height="60" as="geometry" />
        </mxCell>
        <mxCell id="tKxHiiyEizvdwOHOVp_o-21" style="edgeStyle=orthogonalEdgeStyle;rounded=0;orthogonalLoop=1;jettySize=auto;html=1;exitX=1;exitY=0.5;exitDx=0;exitDy=0;entryX=0.5;entryY=0;entryDx=0;entryDy=0;labelBackgroundColor=none;strokeColor=#A8201A;fontColor=default;" edge="1" parent="WIyWlLk6GJQsqaUBKTNV-1" source="tKxHiiyEizvdwOHOVp_o-16" target="tKxHiiyEizvdwOHOVp_o-12">
          <mxGeometry relative="1" as="geometry">
            <mxPoint x="700" y="150" as="targetPoint" />
          </mxGeometry>
        </mxCell>
        <mxCell id="tKxHiiyEizvdwOHOVp_o-16" value="Success" style="rhombus;whiteSpace=wrap;html=1;labelBackgroundColor=none;fillColor=#60a917;strokeColor=#2D7600;fontColor=#ffffff;" vertex="1" parent="WIyWlLk6GJQsqaUBKTNV-1">
          <mxGeometry x="500" y="110" width="80" height="80" as="geometry" />
        </mxCell>
        <mxCell id="tKxHiiyEizvdwOHOVp_o-25" style="edgeStyle=orthogonalEdgeStyle;rounded=0;orthogonalLoop=1;jettySize=auto;html=1;exitX=0.5;exitY=1;exitDx=0;exitDy=0;labelBackgroundColor=none;strokeColor=#A8201A;fontColor=default;" edge="1" parent="WIyWlLk6GJQsqaUBKTNV-1" source="tKxHiiyEizvdwOHOVp_o-22" target="tKxHiiyEizvdwOHOVp_o-24">
          <mxGeometry relative="1" as="geometry" />
        </mxCell>
        <mxCell id="tKxHiiyEizvdwOHOVp_o-22" value="Fail" style="rhombus;whiteSpace=wrap;html=1;labelBackgroundColor=none;fillColor=#e51400;strokeColor=#B20000;fontColor=#ffffff;" vertex="1" parent="WIyWlLk6GJQsqaUBKTNV-1">
          <mxGeometry x="500" y="330" width="80" height="80" as="geometry" />
        </mxCell>
        <mxCell id="tKxHiiyEizvdwOHOVp_o-24" value="Contact DevOps team to debug" style="rounded=1;whiteSpace=wrap;html=1;labelBackgroundColor=none;fillColor=#FAE5C7;strokeColor=#0F8B8D;fontColor=#143642;" vertex="1" parent="WIyWlLk6GJQsqaUBKTNV-1">
          <mxGeometry x="480" y="450" width="120" height="60" as="geometry" />
        </mxCell>
        <mxCell id="tKxHiiyEizvdwOHOVp_o-27" value="Documentation" style="rounded=1;whiteSpace=wrap;html=1;labelBackgroundColor=none;fillColor=#FAE5C7;strokeColor=#0F8B8D;fontColor=#143642;" vertex="1" parent="WIyWlLk6GJQsqaUBKTNV-1">
          <mxGeometry x="20" y="80" width="120" height="60" as="geometry" />
        </mxCell>
        <mxCell id="tKxHiiyEizvdwOHOVp_o-31" value="This flow chart depicts the creation of jenkins/Cloudbees CICD pipeline automatically without any manual triggers." style="text;html=1;align=center;verticalAlign=middle;resizable=0;points=[];autosize=1;strokeColor=#432D57;fillColor=#76608a;labelBackgroundColor=none;fontColor=#ffffff;" vertex="1" parent="WIyWlLk6GJQsqaUBKTNV-1">
          <mxGeometry x="60" y="-40" width="630" height="30" as="geometry" />
        </mxCell>
        <mxCell id="tKxHiiyEizvdwOHOVp_o-33" value="DevOps team will share" style="rounded=1;whiteSpace=wrap;html=1;labelBackgroundColor=none;fillColor=#1ba1e2;strokeColor=#006EAF;fontColor=#ffffff;" vertex="1" parent="WIyWlLk6GJQsqaUBKTNV-1">
          <mxGeometry x="90" y="40" width="120" height="30" as="geometry" />
        </mxCell>
        <mxCell id="tKxHiiyEizvdwOHOVp_o-34" value="Text" style="text;html=1;align=center;verticalAlign=middle;resizable=0;points=[];autosize=1;strokeColor=none;fillColor=none;fontColor=#143642;" vertex="1" parent="WIyWlLk6GJQsqaUBKTNV-1">
          <mxGeometry x="595" y="98" width="50" height="30" as="geometry" />
        </mxCell>
      </root>
    </mxGraphModel>
  </diagram>
</mxfile>
